<svg width="110" height="137" viewBox="0 0 110 137" fill="none" xmlns="http://www.w3.org/2000/svg">
<path d="M31.5 66C32.7 68.4 32 69.5 32 74.5C32 75.7649 33.1667 75.3333 33.5 75C34.5 73.5 34.1884 66.5403 33.5 60C32.5 50.5 27.6667 44.5 25.5 41.5C26 41.5 30.7081 46.6401 32.5 50C36.5 57.5 36.1667 60.3333 36.5 62.5C39 59 41.3 49.7 36.5 42.5C31.7 35.3 23.8333 32.1667 20.5 31.5C20.5 31.5 16.0001 45 19.5 53C21 57 30 63 31.5 66Z" fill="#6B8E23"/>
<path d="M38 39.5C38 39.5 41.6667 49 41.5 51.5L42 52C43.5 49.6667 46 45.5 48.5 42C51.7492 37.4511 55.5 34 58 32C55.5 35.8333 50.2 43.9 49 45.5C47.8 47.1 47.8333 48.1667 48 48.5C51.6 45.3 56.8333 44.1667 59 44C57.5 44.6667 53.7 46.6 50.5 49C47.3 51.4 44.1667 55 43 56.5C40.6 59.3 37.3333 67.6667 36 71.5C36.1667 71.6667 36.9 71.5 38.5 69.5C40.1 67.5 43.5 66.3333 45 66C47.8333 65.3333 53.8323 63.8064 59 59.5C65 54.5 67.5 49 68 39.5C68.3161 33.495 66 23 64.5 20.5C64.5 20.5 54 24 48 27.5C39.6924 32.3461 38 39.5 38 39.5Z" fill="#6B8E23"/>
<path d="M90 45.5C90 70.629 69.8528 91 45 91C20.1472 91 0 70.629 0 45.5C0 20.371 20.1472 0 45 0C69.8528 0 90 20.371 90 45.5ZM9 45.5C9 65.6032 25.1177 81.9 45 81.9C64.8823 81.9 81 65.6032 81 45.5C81 25.3968 64.8823 9.1 45 9.1C25.1177 9.1 9 25.3968 9 45.5Z" fill="#6B8E23"/>
<path d="M69.3453 86.0348L75.1759 82.1588L77.9439 86.3227L72.1133 90.1987L69.3453 86.0348Z" fill="#6B8E23"/>
<path d="M69.8906 97.2579C68.9869 95.8693 69.38 94.0109 70.7687 93.1072L80.8177 86.5673C82.2064 85.6635 84.0647 86.0566 84.9685 87.4453L108.441 123.513C110.851 127.216 109.803 132.172 106.1 134.582L104.432 135.667C100.729 138.077 95.7732 137.029 93.3632 133.325L69.8906 97.2579Z" fill="#FF7A4D"/>
</svg>
